<svg width="272" height="40" viewBox="0 0 272 40" fill="none" xmlns="http://www.w3.org/2000/svg">
<path d="M227.562 38.4001L232.939 0.57605H247.595C250.24 0.57605 252.117 1.17338 253.227 2.36805C254.336 3.52005 254.741 5.05605 254.443 6.97605L253.675 12.864C253.376 14.7414 252.651 16.4054 251.499 17.8561C250.347 19.3067 248.618 20.1387 246.314 20.3521V20.4801C247.765 20.7361 248.725 21.2267 249.195 21.9521C249.664 22.6347 250.005 23.7654 250.219 25.3441L251.819 38.4001H241.963L241.323 25.9201C241.28 25.2801 241.216 24.7254 241.131 24.2561C241.088 23.7867 240.981 23.424 240.811 23.168C240.683 22.8694 240.469 22.7201 240.171 22.7201H239.083L236.843 38.4001H227.562ZM239.915 16.64H241.899C242.709 16.64 243.349 16.3627 243.819 15.808C244.331 15.2534 244.693 14.3147 244.907 12.9921L245.483 8.64005C245.696 7.36005 245.653 6.48538 245.355 6.01605C245.056 5.54672 244.565 5.31205 243.883 5.31205H241.515L239.915 16.64Z" fill="#EEEBF7"/>
<path d="M210.346 38.4001L214.826 6.78405H209.194L210.09 0.57605H230.25L229.29 6.78405H223.658L219.178 38.4001H210.346Z" fill="#EEEBF7"/>
<path d="M180.264 38.4001L191.72 0.57605H204.648L205.224 38.4001H195.24L195.368 32.1921H191.528L189.864 38.4001H180.264ZM192.168 27.84H195.88L196.84 7.93605L192.168 27.84Z" fill="#EEEBF7"/>
<path d="M161.062 38.4001L166.439 0.57605H184.359L183.399 6.78405H174.758L173.607 15.488H181.159L180.199 22.4641H172.583L171.239 32.32H179.879L178.983 38.4001H161.062Z" fill="#EEEBF7"/>
<path d="M134.062 38.4001L139.439 0.57605H154.095C156.74 0.57605 158.617 1.17338 159.727 2.36805C160.836 3.52005 161.241 5.05605 160.943 6.97605L160.175 12.864C159.876 14.7414 159.151 16.4054 157.999 17.8561C156.847 19.3067 155.118 20.1387 152.814 20.3521V20.4801C154.265 20.7361 155.225 21.2267 155.695 21.9521C156.164 22.6347 156.505 23.7654 156.719 25.3441L158.319 38.4001H148.463L147.823 25.9201C147.78 25.2801 147.716 24.7254 147.631 24.2561C147.588 23.7867 147.481 23.424 147.311 23.168C147.183 22.8694 146.969 22.7201 146.671 22.7201H145.583L143.343 38.4001H134.062ZM146.415 16.64H148.399C149.209 16.64 149.849 16.3627 150.319 15.808C150.831 15.2534 151.193 14.3147 151.407 12.9921L151.983 8.64005C152.196 7.36005 152.153 6.48538 151.855 6.01605C151.556 5.54672 151.065 5.31205 150.383 5.31205H148.015L146.415 16.64Z" fill="#EEEBF7"/>
<path d="M119.377 39.168C117.158 39.168 115.238 38.912 113.617 38.4C111.996 37.8453 110.822 36.7573 110.097 35.136C109.414 33.5147 109.308 31.0827 109.777 27.84L112.465 8.576C112.764 6.4 113.468 4.69333 114.577 3.456C115.729 2.21867 117.18 1.344 118.929 0.832001C120.721 0.277334 122.705 0 124.881 0C127.142 0 129.041 0.277334 130.577 0.832001C132.113 1.344 133.222 2.21867 133.905 3.456C134.63 4.69333 134.844 6.4 134.545 8.576L133.393 16.96H124.497L125.713 8.192C125.841 7.424 125.841 6.848 125.713 6.464C125.585 6.08 125.372 5.824 125.073 5.696C124.817 5.52533 124.497 5.44 124.113 5.44C123.729 5.44 123.366 5.52533 123.025 5.696C122.726 5.824 122.47 6.08 122.257 6.464C122.044 6.848 121.873 7.424 121.745 8.192L118.545 31.232C118.46 31.9573 118.46 32.5333 118.545 32.96C118.673 33.3867 118.865 33.664 119.121 33.792C119.377 33.92 119.718 33.984 120.145 33.984C120.529 33.984 120.87 33.92 121.169 33.792C121.468 33.664 121.745 33.3867 122.001 32.96C122.257 32.5333 122.406 31.9573 122.449 31.232L123.665 23.104H132.497L131.793 27.776C131.366 31.0613 130.598 33.5147 129.489 35.136C128.38 36.7573 126.972 37.8453 125.265 38.4C123.601 38.912 121.638 39.168 119.377 39.168Z" fill="#EEEBF7"/>
<path d="M74.125 38.4001L79.501 0.57605H90.701L91.533 22.336L98.573 0.57605H109.709L104.333 38.4001H96.525L100.365 11.136L92.237 38.4001H86.221L85.773 11.136L81.933 38.4001H74.125Z" fill="#EEEBF7"/>
<path d="M47.125 38.4001L52.501 0.57605H67.157C69.8023 0.57605 71.6797 1.17338 72.789 2.36805C73.8983 3.52005 74.3037 5.05605 74.005 6.97605L73.237 12.864C72.9383 14.7414 72.213 16.4054 71.061 17.8561C69.909 19.3067 68.181 20.1387 65.877 20.3521V20.4801C67.3277 20.7361 68.2877 21.2267 68.757 21.9521C69.2263 22.6347 69.5677 23.7654 69.781 25.3441L71.381 38.4001H61.525L60.885 25.9201C60.8423 25.2801 60.7783 24.7254 60.693 24.2561C60.6503 23.7867 60.5437 23.424 60.373 23.168C60.245 22.8694 60.0317 22.7201 59.733 22.7201H58.645L56.405 38.4001H47.125ZM59.477 16.64H61.461C62.2717 16.64 62.9117 16.3627 63.381 15.808C63.893 15.2534 64.2557 14.3147 64.469 12.9921L65.045 8.64005C65.2583 7.36005 65.2157 6.48538 64.917 6.01605C64.6183 5.54672 64.1277 5.31205 63.445 5.31205H61.077L59.477 16.64Z" fill="#EEEBF7"/>
<path d="M31.8145 39.168C29.5959 39.168 27.6759 38.912 26.0545 38.4C24.4332 37.8453 23.2599 36.7573 22.5345 35.136C21.8519 33.5147 21.7452 31.0827 22.2145 27.84L24.9025 8.576C25.2012 6.4 25.9052 4.69333 27.0146 3.456C28.1666 2.21867 29.6172 1.344 31.3665 0.832001C33.1585 0.277334 35.1425 0 37.3185 0C39.5799 0 41.5212 0.277334 43.1426 0.832001C44.7639 1.344 45.9586 2.21867 46.7266 3.456C47.5372 4.69333 47.7932 6.4 47.4946 8.576L44.8066 27.776C44.3799 31.0613 43.5479 33.5147 42.3106 35.136C41.1159 36.7573 39.6225 37.8453 37.8305 38.4C36.0812 38.912 34.0759 39.168 31.8145 39.168ZM32.5825 33.984C32.9665 33.984 33.3505 33.92 33.7345 33.792C34.1612 33.664 34.5239 33.3867 34.8225 32.96C35.1639 32.5333 35.3772 31.9573 35.4625 31.232L38.6625 8.192C38.7906 7.424 38.7479 6.848 38.5346 6.464C38.3212 6.08 38.0225 5.824 37.6385 5.696C37.2972 5.52533 36.9345 5.44 36.5505 5.44C36.1665 5.44 35.7612 5.52533 35.3345 5.696C34.9505 5.824 34.6092 6.08 34.3106 6.464C34.0119 6.848 33.7985 7.424 33.6705 8.192L30.4065 31.232C30.3212 31.9573 30.3852 32.5333 30.5985 32.96C30.8119 33.3867 31.0892 33.664 31.4306 33.792C31.7719 33.92 32.1559 33.984 32.5825 33.984Z" fill="#EEEBF7"/>
<path d="M0 38.4001L5.376 0.57605H23.296L22.336 6.78405H13.696L12.544 15.488H20.096L19.136 22.4641H11.52L9.28 38.4001H0Z" fill="#EEEBF7"/>
<path d="M268.065 7.21816L265.287 0.945435H266.412L268.355 5.54771L270.298 0.945435H271.423L268.645 7.21816H268.065ZM265.083 7.21816V0.945435H266.173V7.21816H265.083ZM270.537 7.21816V0.945435H271.628V7.21816H270.537ZM260.992 7.21816V1.49089H262.083V7.21816H260.992ZM259.083 1.89998V0.945435H263.992V1.89998H259.083Z" fill="white"/>
</svg>
